<?xml version="1.0" standalone="no"?>
<!DOCTYPE svg PUBLIC "-//W3C//DTD SVG 20010904//EN"
 "http://www.w3.org/TR/2001/REC-SVG-20010904/DTD/svg10.dtd">
<svg version="1.0" xmlns="http://www.w3.org/2000/svg"
 width="512.000000pt" height="512.000000pt" viewBox="0 0 512.000000 512.000000"
 preserveAspectRatio="xMidYMid meet">

<g transform="translate(0.000000,512.000000) scale(0.100000,-0.100000)"
fill="#000000" stroke="none">
<path d="M1855 4946 c-37 -17 -70 -52 -84 -89 -6 -16 -11 -103 -11 -202 l0
-175 -589 -2 c-578 -3 -590 -3 -617 -24 -15 -11 -37 -33 -48 -48 -20 -26 -21
-40 -21 -326 0 -286 1 -300 21 -326 44 -60 67 -69 185 -72 l109 -4 0 -1471 c0
-1640 -3 -1547 70 -1692 89 -176 248 -300 439 -341 100 -21 2404 -20 2506 1
213 44 404 218 478 435 l22 65 3 1502 2 1501 109 4 c118 3 141 12 185 72 20
26 21 40 21 326 0 286 -1 300 -21 326 -11 15 -33 37 -48 48 -27 21 -39 21
-616 24 l-589 2 -3 190 c-3 206 -6 215 -72 264 -27 21 -38 21 -714 23 -557 2
-693 0 -717 -11z m1185 -386 l0 -80 -480 0 -480 0 0 80 0 80 480 0 480 0 0
-80z m1280 -480 l0 -80 -1760 0 -1760 0 0 80 0 80 1760 0 1760 0 0 -80z m-322
-1882 l-3 -1483 -27 -51 c-40 -76 -70 -107 -140 -145 l-63 -34 -1205 0 -1205
0 -51 27 c-76 40 -107 70 -145 140 l-34 63 -3 1483 -2 1482 1440 0 1440 0 -2
-1482z"/>
<path d="M1695 3346 c-41 -18 -83 -69 -90 -109 -3 -18 -4 -550 -3 -1184 3
-1145 3 -1152 24 -1179 39 -53 71 -69 134 -69 63 0 95 16 134 69 21 27 21 31
21 1206 0 1175 0 1179 -21 1206 -11 15 -32 37 -46 47 -33 25 -113 32 -153 13z"/>
<path d="M2495 3346 c-41 -18 -83 -69 -90 -109 -3 -18 -4 -550 -3 -1184 3
-1145 3 -1152 24 -1179 39 -53 71 -69 134 -69 63 0 95 16 134 69 21 27 21 31
21 1206 0 1175 0 1179 -21 1206 -11 15 -32 37 -46 47 -33 25 -113 32 -153 13z"/>
<path d="M3295 3346 c-41 -18 -83 -69 -90 -109 -3 -18 -4 -550 -3 -1184 3
-1145 3 -1152 24 -1179 39 -53 71 -69 134 -69 63 0 95 16 134 69 21 27 21 31
21 1206 0 1175 0 1179 -21 1206 -11 15 -32 37 -46 47 -33 25 -113 32 -153 13z"/>
</g>
</svg>
