<?xml version="1.0" standalone="no"?>
<!DOCTYPE svg PUBLIC "-//W3C//DTD SVG 20010904//EN"
 "http://www.w3.org/TR/2001/REC-SVG-20010904/DTD/svg10.dtd">
<svg version="1.0" xmlns="http://www.w3.org/2000/svg"
 width="512.000000pt" height="512.000000pt" viewBox="0 0 512.000000 512.000000"
 preserveAspectRatio="xMidYMid meet">

<g transform="translate(0.000000,512.000000) scale(0.100000,-0.100000)"
fill="#000000" stroke="none">
<path d="M150 5107 c-48 -15 -126 -95 -139 -143 -7 -24 -11 -167 -11 -380 0
-330 1 -342 21 -368 28 -36 80 -36 108 0 20 26 21 38 21 366 l0 339 25 24 24
25 1241 0 1240 0 0 -367 c0 -229 4 -382 11 -406 13 -49 73 -115 124 -138 36
-17 74 -19 418 -19 l377 0 0 -231 c0 -216 -1 -231 -17 -224 -47 18 -167 47
-248 60 -75 12 -245 15 -997 15 l-907 0 -20 -26 c-26 -33 -27 -65 -2 -95 l19
-24 538 -5 539 -5 -70 -42 c-39 -22 -103 -69 -142 -102 l-73 -61 -380 0 c-315
0 -386 -3 -409 -15 -47 -24 -56 -78 -18 -113 23 -22 28 -22 346 -22 l323 0
-16 -22 c-92 -131 -176 -306 -212 -445 l-18 -73 -199 0 c-197 0 -198 0 -222
-25 -32 -31 -32 -69 0 -100 24 -25 26 -25 210 -25 l185 0 0 -110 0 -110 -189
0 -190 0 -20 -26 c-26 -33 -27 -65 -2 -95 19 -23 24 -24 222 -29 l203 -5 8
-40 c26 -129 107 -314 191 -440 l47 -70 -322 -3 c-314 -2 -323 -3 -345 -24
-38 -35 -29 -89 18 -113 23 -12 95 -15 412 -15 377 0 384 0 403 -21 28 -31
151 -122 214 -157 l55 -32 -538 0 -538 0 -24 -25 c-30 -30 -32 -64 -4 -99 l20
-26 899 0 c590 0 925 4 976 11 66 9 184 37 272 64 l22 7 0 -451 0 -452 -25
-24 -24 -25 -1681 0 -1681 0 -24 25 -25 24 0 1894 c0 1836 -1 1895 -19 1918
-26 32 -86 32 -112 0 -18 -23 -19 -82 -19 -1918 0 -1465 3 -1905 12 -1937 16
-54 90 -128 144 -144 55 -16 3389 -18 3447 -1 21 6 56 27 78 46 77 70 73 39
79 607 l5 510 49 29 49 28 90 -89 c79 -80 88 -92 78 -110 -30 -55 -24 -63 237
-324 136 -137 270 -264 297 -283 179 -123 431 -54 523 143 23 48 27 71 27 147
0 150 -13 169 -327 483 -227 225 -268 262 -293 262 -17 0 -37 -5 -45 -10 -12
-7 -36 11 -106 81 l-91 91 38 67 c109 185 200 547 156 615 -41 62 -136 28
-137 -50 0 -18 -7 -69 -15 -115 -109 -586 -619 -995 -1207 -966 -298 14 -553
125 -764 332 -189 186 -298 393 -339 645 -48 297 17 595 185 846 68 101 213
246 314 314 479 321 1110 251 1507 -167 149 -156 246 -337 295 -552 9 -36 23
-74 31 -83 23 -25 78 -23 104 3 19 19 21 29 15 81 -7 72 -62 241 -107 330
-111 221 -286 414 -493 543 l-76 47 0 316 0 317 -488 487 -487 488 -1300 -1
c-922 -1 -1310 -4 -1335 -12z m3020 -582 l335 -335 -313 0 -313 0 -24 25 -25
24 0 311 c0 170 1 310 3 310 1 0 153 -151 337 -335z m1075 -3115 l80 -80 -88
-88 -87 -87 -82 82 -82 82 85 85 c46 47 86 85 89 86 3 0 41 -36 85 -80z m476
-357 c237 -240 249 -257 249 -344 -1 -99 -104 -199 -205 -199 -73 0 -95 17
-333 253 l-232 232 142 142 c79 79 145 143 149 143 3 0 107 -102 230 -227z"/>
<path d="M625 3725 c-49 -17 -90 -62 -104 -112 -6 -21 -11 -117 -11 -213 1
-228 15 -270 105 -311 34 -16 67 -19 225 -19 102 0 201 5 222 10 45 13 105 77
113 123 4 18 5 121 3 229 l-3 195 -29 37 c-51 67 -85 76 -296 75 -133 0 -196
-4 -225 -14z m400 -320 l0 -180 -174 -3 c-133 -2 -176 1 -183 10 -13 22 -10
332 4 346 9 9 59 12 183 10 l170 -3 0 -180z"/>
<path d="M3040 3314 c-480 -59 -836 -428 -875 -909 -12 -142 28 -368 72 -400
38 -29 89 -16 108 27 10 25 9 42 -8 106 -28 111 -27 299 2 407 79 295 301 517
596 596 123 33 309 31 428 -5 242 -73 423 -226 526 -447 58 -124 75 -201 75
-349 0 -148 -17 -225 -75 -349 -103 -220 -285 -375 -526 -447 -76 -23 -106
-27 -218 -27 -254 0 -433 78 -612 267 -62 65 -89 86 -108 86 -62 0 -95 -47
-71 -103 21 -50 155 -180 249 -242 176 -114 329 -159 542 -158 118 0 156 5
240 27 393 103 682 437 727 840 63 562 -364 1058 -930 1080 -59 2 -123 2 -142
0z"/>
<path d="M3355 2740 c-22 -11 -98 -78 -169 -149 l-129 -129 -49 39 c-81 64
-167 76 -253 35 -27 -13 -60 -34 -72 -47 -32 -36 -63 -109 -63 -153 0 -85 17
-114 154 -254 146 -148 170 -167 244 -183 42 -9 62 -8 109 6 56 16 66 25 283
247 124 127 233 242 242 256 47 71 41 187 -12 260 -60 83 -195 117 -285 72z
m152 -152 c31 -34 35 -60 15 -95 -22 -42 -410 -433 -440 -444 -39 -15 -81 13
-200 135 -124 125 -135 149 -87 200 40 43 73 36 152 -35 78 -70 98 -80 133
-68 14 5 95 81 180 169 144 149 158 160 191 160 24 0 42 -7 56 -22z"/>
<path d="M601 2659 c-79 -48 -91 -90 -91 -311 0 -179 8 -222 47 -269 46 -54
71 -59 295 -59 192 0 205 2 242 23 25 14 48 39 63 66 22 42 23 54 23 240 0
221 -9 258 -71 302 -33 23 -40 24 -254 27 -209 2 -222 1 -254 -19z m424 -309
l0 -175 -180 0 -180 0 -3 165 c-1 90 0 170 3 177 3 11 43 13 182 11 l178 -3 0
-175z"/>
<path d="M615 1591 c-90 -41 -104 -83 -105 -311 0 -197 8 -240 54 -286 48 -48
93 -56 305 -52 208 3 228 9 278 75 l28 36 3 195 c2 108 1 211 -3 229 -8 46
-68 110 -113 123 -21 5 -120 10 -222 10 -158 0 -191 -3 -225 -19z m410 -316
l0 -180 -169 -3 c-116 -2 -173 1 -182 9 -11 9 -14 47 -14 169 0 87 3 166 6
174 6 14 28 16 183 14 l176 -3 0 -180z"/>
</g>
</svg>
