<?xml version="1.0" standalone="no"?>
<!DOCTYPE svg PUBLIC "-//W3C//DTD SVG 20010904//EN"
 "http://www.w3.org/TR/2001/REC-SVG-20010904/DTD/svg10.dtd">
<svg version="1.0" xmlns="http://www.w3.org/2000/svg"
 width="512.000000pt" height="512.000000pt" viewBox="0 0 512.000000 512.000000"
 preserveAspectRatio="xMidYMid meet">

<g transform="translate(0.000000,512.000000) scale(0.100000,-0.100000)"
fill="#000000" stroke="none">
<path d="M383 4706 c-181 -44 -334 -202 -372 -384 -16 -75 -16 -3449 0 -3524
39 -187 200 -348 387 -387 75 -16 4249 -16 4324 0 187 39 348 200 387 387 16
75 16 3449 0 3524 -39 187 -200 348 -387 387 -36 8 -320 11 -898 11 l-846 0
-34 -34 c-44 -44 -45 -83 -5 -128 l29 -33 864 -5 c851 -5 864 -5 909 -26 66
-31 114 -78 146 -142 l28 -57 3 -1247 2 -1248 -2360 0 -2360 0 2 1248 3 1247
28 57 c32 64 80 111 146 142 45 21 58 21 906 26 473 3 868 9 878 14 21 10 47
57 47 86 0 33 -26 75 -55 88 -38 18 -1699 15 -1772 -2z m4535 -3493 l-3 -388
-28 -57 c-32 -64 -80 -111 -146 -142 l-46 -21 -2135 0 -2135 0 -57 28 c-64 32
-111 80 -142 146 -20 44 -21 64 -24 434 l-3 387 2361 0 2361 0 -3 -387z"/>
<path d="M903 1382 c-207 -74 -269 -320 -122 -486 17 -20 56 -48 87 -63 74
-36 182 -39 253 -6 135 61 206 215 165 355 -47 162 -226 256 -383 200z m163
-216 c25 -24 34 -43 34 -66 0 -41 -56 -100 -94 -100 -105 0 -145 136 -55 186
42 23 78 17 115 -20z"/>
<path d="M1781 1186 c-67 -37 -65 -143 4 -174 20 -9 331 -12 1291 -12 1075 0
1269 2 1293 14 66 35 66 137 0 172 -40 20 -2551 21 -2588 0z"/>
<path d="M2494 4686 c-46 -46 -46 -86 0 -132 36 -36 67 -42 111 -22 69 31 71
139 4 174 -45 23 -78 17 -115 -20z"/>
<path d="M2242 3731 c-70 -24 -118 -65 -156 -131 l-31 -55 -3 -362 c-2 -225 1
-377 7 -400 27 -100 114 -181 218 -204 90 -20 139 -4 336 109 95 55 226 131
292 168 184 106 235 172 235 304 0 134 -51 198 -245 309 -72 41 -200 115 -285
165 -211 122 -260 135 -368 97z m382 -337 c149 -85 281 -165 294 -177 15 -14
22 -32 22 -57 0 -25 -7 -43 -22 -57 -37 -34 -563 -333 -586 -333 -11 0 -34 12
-51 26 l-31 26 0 338 0 338 31 26 c17 14 40 26 51 26 12 0 143 -70 292 -156z"/>
</g>
</svg>
