<?xml version="1.0" standalone="no"?>
<!DOCTYPE svg PUBLIC "-//W3C//DTD SVG 20010904//EN"
 "http://www.w3.org/TR/2001/REC-SVG-20010904/DTD/svg10.dtd">
<svg version="1.0" xmlns="http://www.w3.org/2000/svg"
 width="512.000000pt" height="512.000000pt" viewBox="0 0 512.000000 512.000000"
 preserveAspectRatio="xMidYMid meet">

<g transform="translate(0.000000,512.000000) scale(0.100000,-0.100000)"
fill="#000000" stroke="none">
<path d="M946 4949 c-62 -15 -153 -68 -197 -116 -22 -24 -55 -74 -72 -111
l-32 -67 0 -2096 0 -2095 37 -76 c45 -91 103 -147 196 -191 l67 -32 1615 0
1615 0 67 32 c93 44 151 100 196 191 l37 76 3 1745 2 1746 -502 502 -503 503
-1245 -1 c-710 -1 -1262 -5 -1284 -10z m2416 -477 l3 -328 37 -76 c45 -91 103
-147 196 -191 l67 -32 328 -3 327 -3 0 -1656 c0 -1271 -3 -1665 -12 -1697 -16
-55 -99 -138 -154 -154 -60 -17 -3128 -17 -3188 0 -55 16 -138 99 -154 154
-18 60 -18 4088 0 4148 15 51 99 137 148 153 25 8 386 11 1217 12 l1182 1 3
-328z m606 -470 c-162 -2 -247 1 -278 10 -59 16 -141 96 -158 154 -8 27 -12
122 -12 280 l0 239 340 -340 340 -340 -232 -3z"/>
<path d="M1145 3975 c-16 -15 -25 -36 -25 -55 0 -19 9 -40 25 -55 l24 -25 511
0 511 0 24 25 c16 15 25 36 25 55 0 19 -9 40 -25 55 l-24 25 -511 0 -511 0
-24 -25z"/>
<path d="M1145 3495 c-16 -15 -25 -36 -25 -55 0 -19 9 -40 25 -55 l24 -25 271
0 271 0 24 25 c16 15 25 36 25 55 0 19 -9 40 -25 55 l-24 25 -271 0 -271 0
-24 -25z"/>
<path d="M1945 3495 c-16 -15 -25 -36 -25 -55 0 -19 9 -40 25 -55 l24 -25 991
0 991 0 24 25 c16 15 25 36 25 55 0 19 -9 40 -25 55 l-24 25 -991 0 -991 0
-24 -25z"/>
<path d="M1145 3015 c-16 -15 -25 -36 -25 -55 0 -19 9 -40 25 -55 l24 -25 831
0 831 0 24 25 c16 15 25 36 25 55 0 19 -9 40 -25 55 l-24 25 -831 0 -831 0
-24 -25z"/>
<path d="M3065 3015 c-16 -15 -25 -36 -25 -55 0 -19 9 -40 25 -55 l24 -25 431
0 431 0 24 25 c16 15 25 36 25 55 0 19 -9 40 -25 55 l-24 25 -431 0 -431 0
-24 -25z"/>
<path d="M1145 2535 c-16 -15 -25 -36 -25 -55 0 -19 9 -40 25 -55 l24 -25 511
0 511 0 24 25 c16 15 25 36 25 55 0 19 -9 40 -25 55 l-24 25 -511 0 -511 0
-24 -25z"/>
<path d="M2425 2535 c-16 -15 -25 -36 -25 -55 0 -19 9 -40 25 -55 l24 -25 751
0 751 0 24 25 c33 32 33 78 0 110 l-24 25 -751 0 -751 0 -24 -25z"/>
<path d="M1145 2055 c-16 -15 -25 -36 -25 -55 0 -19 9 -40 25 -55 l24 -25 991
0 991 0 24 25 c16 15 25 36 25 55 0 19 -9 40 -25 55 l-24 25 -991 0 -991 0
-24 -25z"/>
<path d="M3385 2055 c-16 -15 -25 -36 -25 -55 0 -19 9 -40 25 -55 l24 -25 271
0 271 0 24 25 c16 15 25 36 25 55 0 19 -9 40 -25 55 l-24 25 -271 0 -271 0
-24 -25z"/>
<path d="M1145 1575 c-16 -15 -25 -36 -25 -55 0 -19 9 -40 25 -55 l24 -25 351
0 351 0 24 25 c16 15 25 36 25 55 0 19 -9 40 -25 55 l-24 25 -351 0 -351 0
-24 -25z"/>
<path d="M2105 1575 c-16 -15 -25 -36 -25 -55 0 -19 9 -40 25 -55 l24 -25 431
0 431 0 24 25 c16 15 25 36 25 55 0 19 -9 40 -25 55 l-24 25 -431 0 -431 0
-24 -25z"/>
<path d="M3225 1575 c-16 -15 -25 -36 -25 -55 0 -19 9 -40 25 -55 l24 -25 351
0 351 0 24 25 c16 15 25 36 25 55 0 19 -9 40 -25 55 l-24 25 -351 0 -351 0
-24 -25z"/>
<path d="M1145 1095 c-16 -15 -25 -36 -25 -55 0 -19 9 -40 25 -55 l24 -25 511
0 511 0 24 25 c16 15 25 36 25 55 0 19 -9 40 -25 55 l-24 25 -511 0 -511 0
-24 -25z"/>
<path d="M2425 1095 c-16 -15 -25 -36 -25 -55 0 -19 9 -40 25 -55 l24 -25 431
0 431 0 24 25 c16 15 25 36 25 55 0 19 -9 40 -25 55 l-24 25 -431 0 -431 0
-24 -25z"/>
<path d="M3545 1095 c-16 -15 -25 -36 -25 -55 0 -19 9 -40 25 -55 24 -25 26
-25 215 -25 189 0 191 0 215 25 16 15 25 36 25 55 0 19 -9 40 -25 55 -24 25
-26 25 -215 25 -189 0 -191 0 -215 -25z"/>
</g>
</svg>
